<svg xmlns="http://www.w3.org/2000/svg" xmlns:xlink="http://www.w3.org/1999/xlink" version="1.1" x="0px" y="0px" viewBox="0 0 100 125" enable-background="new 0 0 100 100" xml:space="preserve"><g>
<path class="frame" fill="#000000" d="M15,9.158V88.99h70V9.158H15z M76.148,62.212H23.716v-44.74h52.432V62.212z"/>

<path class="sun" fill="#000000" d="M39.324,36.765c3.217,0,5.821-2.527,5.821-5.646c0-3.116-2.604-5.637-5.821-5.637   c-3.218,0-5.824,2.521-5.824,5.637C33.5,34.237,36.106,36.765,39.324,36.765z"/>
<path class="background" fill="#000000" d="M72.166,43.249L64.97,30.595l-9.767,20.453l-5.761-5.708c0,0-7.976,2.873-10.605,7.278   c-4.188-2.203-6.46,0-6.46,0l-5.659,5.604h45.448V43.249z"/></g>
</svg>